<svg id="Layer_5" enable-background="new 0 0 64 64" height="512" viewBox="0 0 64 64" width="512" xmlns="http://www.w3.org/2000/svg" xmlns:xlink="http://www.w3.org/1999/xlink"><linearGradient id="SVGID_1_" gradientUnits="userSpaceOnUse" x1="32" x2="32" y1="63" y2="1"><stop offset="0" stop-color="#9f2fff"/><stop offset="1" stop-color="#0bb1d3"/></linearGradient><path d="m43 59h-2v-2h2zm-16-2h-2v2h2zm12 0h-2v2h2zm-22 2h2v-2h-2zm14-2h-2v2h2zm-10 2h2v-2h-2zm26-2h-2v2h2zm-12 0h-2v2h2zm-18-2h2v-2h-2zm30-2h-2v2h2zm-12 0h-2v2h2zm-4 0h-2v2h2zm-4 0h-2v2h2zm12 0h-2v2h2zm4 0h-2v2h2zm-8-4h-2v2h2zm12 0h-2v2h2zm-4 0h-2v2h2zm-4 0h-2v2h2zm-5-39c0-1.654 1.346-3 3-3s3 1.346 3 3-1.346 3-3 3-3-1.346-3-3zm2 0c0 .551.449 1 1 1s1-.449 1-1-.449-1-1-1-1 .449-1 1zm-12 0c0-1.654 1.346-3 3-3s3 1.346 3 3-1.346 3-3 3-3-1.346-3-3zm2 0c0 .551.449 1 1 1s1-.449 1-1-.449-1-1-1-1 .449-1 1zm9.973 7-7.973-.027v-1.973h-2v1.973c0 1.117.91 2.027 2.027 2.027h7.945c1.118 0 2.028-.91 2.028-2.027v-1.973h-2zm-12.973 11c0-1.654 1.346-3 3-3h12c1.654 0 3 1.346 3 3v4c0 1.654-1.346 3-3 3h-12c-1.654 0-3-1.346-3-3zm2 4c0 .551.449 1 1 1h12c.551 0 1-.449 1-1v-4c0-.551-.449-1-1-1h-12c-.551 0-1 .449-1 1zm12 7h2v-2h-2zm-8 0h2v-2h-2zm4 0h2v-2h-2zm-8 0h2v-2h-2zm18.18 2h19.82v2h-41.583c.475.73.915 1.283 1.247 1.504.209.139.387.314.553.497.748-.174 1.522-.174 2.27-.001h26.513v18h-40v-18h3.897c-.398-.632-.797-1.306-1.181-2h-13.716v-2h12.695c-.981-2.087-1.695-4.226-1.695-6 0-3.093 1.585-5.945 3.011-7.895-.001-.035-.011-.069-.011-.105 0-2.757 2.243-5 5-5 .526 0 1.044.096 1.549.268l.308-.411c-1.123-.918-1.857-2.296-1.857-3.857v-1h-1c-1.654 0-3-1.346-3-3v-4c0-1.654 1.346-3 3-3h1v-1c0-2.757 2.243-5 5-5h14c2.757 0 5 2.243 5 5v1h1c1.654 0 3 1.346 3 3v4c0 1.654-1.346 3-3 3h-1v1c0 1.561-.734 2.939-1.857 3.857l.308.411c.505-.172 1.023-.268 1.549-.268 1.631 0 3.069.797 3.982 2.009.043-.001.087-.009.13-.009 2.695 0 4.888-2.193 4.888-4.888v-4.137c-1.207-.914-2-2.348-2-3.974v-.162l1.051-3.154 1.897.633-.945 2.834c.08 1.583 1.393 2.848 2.997 2.848s2.917-1.265 2.996-2.849l-.945-2.834 1.897-.633 1.052 3.154v.162c0 1.627-.793 3.061-2 3.974v4.026c0 6.065-4.935 11-11 11-.008 0-.015-.003-.023-.003-.781 1.033-1.945 1.745-3.285 1.933zm.82-32v6h1c.551 0 1-.449 1-1v-4c0-.551-.449-1-1-1zm-24 6v-6h-1c-.551 0-1 .449-1 1v4c0 .551.449 1 1 1zm28.886 10.954c.072.338.114.687.114 1.046 0 .327-.036.645-.096.954 4.539-.455 8.096-4.297 8.096-8.954v-3.101c-.323.066-.658.101-1 .101s-.677-.035-1-.101v3.213c0 3.536-2.679 6.455-6.114 6.842zm-4.886-1.954c-.117 0-.232.031-.348.046.871 1.572 1.348 3.357 1.348 5.159 0 .209-.014.419-.026.628 1.162-.4 2.026-1.511 2.026-2.833 0-1.654-1.346-3-3-3zm-15-21 1.5 2h3l1.5-2zm-7 15c0 1.654 1.346 3 3 3h14c1.654 0 3-1.346 3-3v-12c0-1.654-1.346-3-3-3h-1.5l-3 4h-5l-3-4h-1.5c-1.654 0-3 1.346-3 3zm3 5h-1.5l-.769 1.026-.451.669c-.828 1.35-1.28 2.923-1.28 4.51 0 .472.04.948.117 1.416l1.73 10.379h18.306l1.73-10.38c.077-.467.117-.943.117-1.415 0-1.829-.599-3.64-1.684-5.112l-.005-.007c-.012-.016-.022-.033-.033-.049l-.778-1.037h-1.5zm-8 4c0 1.311.851 2.417 2.026 2.824-.012-.207-.026-.413-.026-.619 0-1.801.477-3.587 1.349-5.159-.117-.015-.232-.046-.349-.046-1.654 0-3 1.346-3 3zm5.232 20.732c-1.134 1.134-1.168 2.958-.104 4.134l2.673 1.336-.895 1.789-2.974-1.487-.115-.115c-1.059-1.059-1.522-2.476-1.43-3.865-.017-.011-.036-.018-.053-.03-.082-.055-.2-.164-.334-.301v1.807h-2v-2h1.818c-.404-.442-.954-1.13-1.577-2h-3.241v14h36v-14h-21.712l1 2h1.712v2h-2v-1.348l-1.298.649-1.336-2.673c-1.176-1.064-3-1.03-4.134.104zm-.954-1.789c-1.972-1.726-5.278-8.479-5.278-10.943 0-1.171.413-2.473 1.189-3.869-.586-.4-1.07-.928-1.441-1.534-.937 1.548-1.748 3.445-1.748 5.403 0 3.942 4.46 10.464 6.038 12.368.214-.373.461-.732.78-1.05.143-.143.304-.253.46-.375zm-1.021-4.943h.562l-1.512-9.07c-.085-.012-.175-.01-.259-.026-.674 1.163-1.048 2.228-1.048 3.096 0 1.097 1.077 3.756 2.257 6z" fill="url(#SVGID_1_)"/></svg>