<svg id="workspace" enable-background="new 0 0 300 300" height="512" viewBox="0 0 300 300" width="512" xmlns="http://www.w3.org/2000/svg" xmlns:xlink="http://www.w3.org/1999/xlink"><linearGradient id="SVGID_1_" gradientUnits="userSpaceOnUse" x1="51.015" x2="252.629" y1="260.585" y2="58.972"><stop offset="0" stop-color="#107eff"/><stop offset="1" stop-color="#8f16ff"/></linearGradient><g><path d="m258 158h-62.519c-2.945-4.779-8.181-8-14.194-8h-38.574c-6.013 0-11.249 3.221-14.194 8h-7.24l-2.4-12h39.121c2.209 0 4-1.791 4-4v-76c0-2.209-1.791-4-4-4h-104c-2.209 0-4 1.791-4 4v76c0 2.209 1.791 4 4 4h39.12l-2.4 12h-48.72c-2.209 0-4 1.791-4 4v16c0 2.209 1.791 4 4 4h4v8c0 2.209 1.791 4 4 4h7.424l2.505 72.545c.143 4.18 3.531 7.455 7.715 7.455 4.18 0 7.57-3.274 7.717-7.453l2.503-72.547h48.136v61.091.012 14.897c0 2.209 1.791 4 4 4s4-1.791 4-4v-12.256l28-11.858 28 11.858v12.256c0 2.209 1.791 4 4 4s4-1.791 4-4v-14.896c0-.004 0-.008 0-.012v-61.092h23.424l2.505 72.545c.143 4.18 3.531 7.455 7.715 7.455 4.18 0 7.57-3.274 7.717-7.453l2.504-72.547h8.11c2.209 0 4-1.791 4-4v-8h4.025c2.209 0 4-1.791 4-4v-16c0-2.209-1.791-4-4-4zm-79.004 72-16.996 7.198-16.996-7.198zm-36.283-72h38.574c4.804 0 8.713 3.908 8.713 8.713v43.287h-56v-43.287c0-4.805 3.908-8.713 8.713-8.713zm11.287-88v52h-96v-52zm-96 60h96v8h-96zm-12 36h80.072c-.01.242-.072.469-.072.713v7.287h-80zm21.644 92.162-2.214-64.162h4.429zm66.356-9.106v-15.027l17.741 7.514zm38.259-7.514 17.741-7.514v15.027zm59.385 16.622-2.214-64.164h4.43zm22.356-84.164h-56v-7.287c0-.244-.062-.471-.072-.713h56.072zm-62.975-40h53.5c2.209 0 4-1.791 4-4 0-12.826-7.334-24.219-18.525-29.221v-6.779c0-2.209-1.791-4-4-4h-4v-60c0-2.209-1.791-4-4-4s-4 1.791-4 4v60h-4c-2.209 0-4 1.791-4 4v6.574c-11.463 4.884-18.975 16.355-18.975 29.426 0 2.209 1.791 4 4 4zm20.18-26.832c1.664-.526 2.795-2.07 2.795-3.814v-5.354h8v5.506c0 1.719 1.098 3.244 2.725 3.791 8.217 2.764 14.09 10.02 15.482 18.703h-44.854c1.448-8.766 7.563-16.213 15.852-18.832z" fill="url(#SVGID_1_)"/></g></svg>